<?xml version="1.0" encoding="utf-8"?>
<Project name="callyourmother" themeId="0" version="65540" templateID="SimpleProjectTemplate">
  <MediaItems>
    <MediaItem id="1" filePath="C:\Users\mfans\Desktop\callyourmother_splash.png" arWidth="1920" arHeight="1080" duration="0" songTitle="" songArtist="" songAlbum="" songCopyrightUrl="" songArtistUrl="" songAudioFileUrl="" stabilizationMode="0" mediaItemType="2" />
    <MediaItem id="2" filePath="C:\Users\mfans\Desktop\whitescreen.png" arWidth="1920" arHeight="1080" duration="0" songTitle="" songArtist="" songAlbum="" songCopyrightUrl="" songArtistUrl="" songAudioFileUrl="" stabilizationMode="0" mediaItemType="2" />
    <MediaItem id="3" filePath="C:\Users\mfans\Downloads\2019_12_02_19_18_43.mp4" arWidth="720" arHeight="1440" duration="80.699966599999996" songTitle="" songArtist="" songAlbum="" songCopyrightUrl="" songArtistUrl="" songAudioFileUrl="" stabilizationMode="0" mediaItemType="1" />
    <MediaItem id="4" filePath="C:\Users\mfans\Videos\Captures\Call Your Mother â€“ Figma - Mozilla Firefox 2019-12-02 19-34-26.mp4" arWidth="1920" arHeight="1080" duration="51.740133299999997" songTitle="" songArtist="" songAlbum="" songCopyrightUrl="" songArtistUrl="" songAudioFileUrl="" stabilizationMode="0" mediaItemType="1" />
    <MediaItem id="5" filePath="C:\Users\mfans\Desktop\Scott_Holmes_-_04_-_Upbeat_Party.mp3" arWidth="0" arHeight="0" duration="144.61387500000001" songTitle="Upbeat Party" songArtist="Scott Holmes" songAlbum="Inspiring and Upbeat Music" songCopyrightUrl="" songArtistUrl="" songAudioFileUrl="" stabilizationMode="0" mediaItemType="3" />
    <MediaItem id="6" filePath="C:\Users\mfans\Downloads\2019_12_02_20_28_47.mp4" arWidth="0" arHeight="0" duration="0" songTitle="" songArtist="" songAlbum="" songCopyrightUrl="" songArtistUrl="" songAudioFileUrl="" stabilizationMode="0" mediaItemType="1" />
    <MediaItem id="7" filePath="C:\Users\mfans\Downloads\2019_12_02_20_29_41.mp4" arWidth="720" arHeight="1440" duration="11.6530015" songTitle="" songArtist="" songAlbum="" songCopyrightUrl="" songArtistUrl="" songAudioFileUrl="" stabilizationMode="0" mediaItemType="1" />
    <MediaItem id="8" filePath="C:\Users\mfans\Downloads\2019_12_02_20_28_47(1).mp4" arWidth="720" arHeight="1440" duration="32.1340182" songTitle="" songArtist="" songAlbum="" songCopyrightUrl="" songArtistUrl="" songAudioFileUrl="" stabilizationMode="0" mediaItemType="1" />
  </MediaItems>
  <Extents>
    <VideoClip extentID="19" gapBefore="0" mediaItemID="3" inTime="52.076933500000003" outTime="80.699966599999996" speed="1" stabilizationMode="0">
      <Effects />
      <Transitions />
      <BoundProperties>
        <BoundPropertyBool Name="Mute" Value="false" />
        <BoundPropertyInt Name="rotateStepNinety" Value="0" />
        <BoundPropertyFloat Name="Volume" Value="1" />
      </BoundProperties>
    </VideoClip>
    <VideoClip extentID="20" gapBefore="0" mediaItemID="3" inTime="46.789183500000014" outTime="52.076933500000003" speed="1" stabilizationMode="0">
      <Effects />
      <Transitions />
      <BoundProperties>
        <BoundPropertyBool Name="Mute" Value="false" />
        <BoundPropertyInt Name="rotateStepNinety" Value="0" />
        <BoundPropertyFloat Name="Volume" Value="1" />
      </BoundProperties>
    </VideoClip>
    <VideoClip extentID="38" gapBefore="0" mediaItemID="8" inTime="22.22773623333336" outTime="32.1340182" speed="1" stabilizationMode="0">
      <Effects />
      <Transitions />
      <BoundProperties>
        <BoundPropertyBool Name="Mute" Value="false" />
        <BoundPropertyInt Name="rotateStepNinety" Value="0" />
        <BoundPropertyFloat Name="Volume" Value="0.98823535442352295" />
      </BoundProperties>
    </VideoClip>
    <TitleClip extentID="21" gapBefore="2.4908333333333346" duration="5">
      <Effects>
        <TextEffect effectTemplateID="TextEffectFadeTemplate" TextScriptId="1">
          <BoundProperties>
            <BoundPropertyBool Name="automatic" Value="false" />
            <BoundPropertyFloatSet Name="color">
              <BoundPropertyFloatElement Value="1" />
              <BoundPropertyFloatElement Value="1" />
              <BoundPropertyFloatElement Value="1" />
            </BoundPropertyFloatSet>
            <BoundPropertyStringSet Name="family">
              <BoundPropertyStringElement Value="Segoe UI" />
            </BoundPropertyStringSet>
            <BoundPropertyBool Name="horizontal" Value="true" />
            <BoundPropertyStringSet Name="justify">
              <BoundPropertyStringElement Value="MIDDLE" />
            </BoundPropertyStringSet>
            <BoundPropertyBool Name="leftToRight" Value="true" />
            <BoundPropertyFloatSet Name="length" />
            <BoundPropertyFloat Name="maxExtent" Value="0" />
            <BoundPropertyFloatSet Name="outlineColor">
              <BoundPropertyFloatElement Value="0.64705884456634521" />
              <BoundPropertyFloatElement Value="0.64705884456634521" />
              <BoundPropertyFloatElement Value="0.64705884456634521" />
            </BoundPropertyFloatSet>
            <BoundPropertyInt Name="outlineSizeIndex" Value="0" />
            <BoundPropertyFloatSet Name="position">
              <BoundPropertyFloatElement Value="3.3304219245910645" />
              <BoundPropertyFloatElement Value="2.5116279125213623" />
              <BoundPropertyFloatElement Value="0.02500000037252903" />
            </BoundPropertyFloatSet>
            <BoundPropertyFloat Name="size" Value="0.3333333432674408" />
            <BoundPropertyStringSet Name="string">
              <BoundPropertyStringElement Value="Add as many " />
              <BoundPropertyStringElement Value="contacts as " />
              <BoundPropertyStringElement Value="you want! " />
              <BoundPropertyStringElement Value="They'll show up " />
              <BoundPropertyStringElement Value="in your " />
              <BoundPropertyStringElement Value="manage " />
              <BoundPropertyStringElement Value="contacts page" />
            </BoundPropertyStringSet>
            <BoundPropertyString Name="style" Value="Plain" />
            <BoundPropertyFloat Name="transparency" Value="0" />
          </BoundProperties>
        </TextEffect>
      </Effects>
      <Transitions />
      <BoundProperties>
        <BoundPropertyFloatSet Name="diffuseColor">
          <BoundPropertyFloatElement Value="0.75" />
          <BoundPropertyFloatElement Value="1" />
          <BoundPropertyFloatElement Value="0" />
        </BoundPropertyFloatSet>
        <BoundPropertyFloat Name="transparency" Value="1" />
      </BoundProperties>
    </TitleClip>
    <TitleClip extentID="39" gapBefore="0" duration="4">
      <Effects />
      <Transitions />
      <BoundProperties>
        <BoundPropertyFloatSet Name="diffuseColor">
          <BoundPropertyFloatElement Value="0" />
          <BoundPropertyFloatElement Value="0" />
          <BoundPropertyFloatElement Value="0" />
        </BoundPropertyFloatSet>
        <BoundPropertyFloat Name="transparency" Value="0" />
      </BoundProperties>
    </TitleClip>
    <TitleClip extentID="22" gapBefore="2.6265625000000057" duration="7">
      <Effects>
        <TextEffect effectTemplateID="TextEffectFadeTemplate" TextScriptId="1">
          <BoundProperties>
            <BoundPropertyBool Name="automatic" Value="false" />
            <BoundPropertyFloatSet Name="color">
              <BoundPropertyFloatElement Value="1" />
              <BoundPropertyFloatElement Value="1" />
              <BoundPropertyFloatElement Value="1" />
            </BoundPropertyFloatSet>
            <BoundPropertyStringSet Name="family">
              <BoundPropertyStringElement Value="Segoe UI" />
            </BoundPropertyStringSet>
            <BoundPropertyBool Name="horizontal" Value="true" />
            <BoundPropertyStringSet Name="justify">
              <BoundPropertyStringElement Value="MIDDLE" />
            </BoundPropertyStringSet>
            <BoundPropertyBool Name="leftToRight" Value="true" />
            <BoundPropertyFloatSet Name="length" />
            <BoundPropertyFloat Name="maxExtent" Value="0" />
            <BoundPropertyFloatSet Name="outlineColor">
              <BoundPropertyFloatElement Value="0.64705884456634521" />
              <BoundPropertyFloatElement Value="0.64705884456634521" />
              <BoundPropertyFloatElement Value="0.64705884456634521" />
            </BoundPropertyFloatSet>
            <BoundPropertyInt Name="outlineSizeIndex" Value="0" />
            <BoundPropertyFloatSet Name="position">
              <BoundPropertyFloatElement Value="-3.5167396068572998" />
              <BoundPropertyFloatElement Value="2.4418604373931885" />
              <BoundPropertyFloatElement Value="0.02500000037252903" />
            </BoundPropertyFloatSet>
            <BoundPropertyFloat Name="size" Value="0.3333333432674408" />
            <BoundPropertyStringSet Name="string">
              <BoundPropertyStringElement Value="You can easily see " />
              <BoundPropertyStringElement Value="and set reminder " />
              <BoundPropertyStringElement Value="frequency " />
              <BoundPropertyStringElement Value="from the individual " />
              <BoundPropertyStringElement Value="contact view" />
            </BoundPropertyStringSet>
            <BoundPropertyString Name="style" Value="Plain" />
            <BoundPropertyFloat Name="transparency" Value="0" />
          </BoundProperties>
        </TextEffect>
      </Effects>
      <Transitions />
      <BoundProperties>
        <BoundPropertyFloatSet Name="diffuseColor">
          <BoundPropertyFloatElement Value="0.75" />
          <BoundPropertyFloatElement Value="1" />
          <BoundPropertyFloatElement Value="0" />
        </BoundPropertyFloatSet>
        <BoundPropertyFloat Name="transparency" Value="1" />
      </BoundProperties>
    </TitleClip>
    <ImageClip extentID="5" gapBefore="0" mediaItemID="1" duration="3">
      <Effects />
      <Transitions>
        <ShapeEffect effectTemplateID="CrossfadeTransitionTemplate" duration="2">
          <BoundProperties />
        </ShapeEffect>
      </Transitions>
      <BoundProperties>
        <BoundPropertyInt Name="rotateStepNinety" Value="0" />
      </BoundProperties>
    </ImageClip>
    <TitleClip extentID="40" gapBefore="5.2305620374803752" duration="4">
      <Effects>
        <TextEffect effectTemplateID="TextEffectFadeZoomTemplate" TextScriptId="9">
          <BoundProperties>
            <BoundPropertyBool Name="automatic" Value="false" />
            <BoundPropertyFloatSet Name="color">
              <BoundPropertyFloatElement Value="1" />
              <BoundPropertyFloatElement Value="1" />
              <BoundPropertyFloatElement Value="1" />
            </BoundPropertyFloatSet>
            <BoundPropertyStringSet Name="family">
              <BoundPropertyStringElement Value="Segoe UI" />
            </BoundPropertyStringSet>
            <BoundPropertyBool Name="horizontal" Value="true" />
            <BoundPropertyStringSet Name="justify">
              <BoundPropertyStringElement Value="MIDDLE" />
            </BoundPropertyStringSet>
            <BoundPropertyBool Name="leftToRight" Value="true" />
            <BoundPropertyFloatSet Name="length" />
            <BoundPropertyFloat Name="maxExtent" Value="0" />
            <BoundPropertyFloatSet Name="outlineColor">
              <BoundPropertyFloatElement Value="0.64705884456634521" />
              <BoundPropertyFloatElement Value="0.64705884456634521" />
              <BoundPropertyFloatElement Value="0.64705884456634521" />
            </BoundPropertyFloatSet>
            <BoundPropertyInt Name="outlineSizeIndex" Value="0" />
            <BoundPropertyFloatSet Name="position">
              <BoundPropertyFloatElement Value="0.023289680480957031" />
              <BoundPropertyFloatElement Value="1.5116279125213623" />
              <BoundPropertyFloatElement Value="0.02500000037252903" />
            </BoundPropertyFloatSet>
            <BoundPropertyFloat Name="size" Value="0.80000001192092896" />
            <BoundPropertyStringSet Name="string">
              <BoundPropertyStringElement Value="And if you haven't " />
              <BoundPropertyStringElement Value="called a scheduled " />
              <BoundPropertyStringElement Value="contact in a while..." />
            </BoundPropertyStringSet>
            <BoundPropertyString Name="style" Value="Plain" />
            <BoundPropertyFloat Name="transparency" Value="0" />
          </BoundProperties>
        </TextEffect>
      </Effects>
      <Transitions />
      <BoundProperties>
        <BoundPropertyFloatSet Name="diffuseColor">
          <BoundPropertyFloatElement Value="0.75" />
          <BoundPropertyFloatElement Value="1" />
          <BoundPropertyFloatElement Value="0" />
        </BoundPropertyFloatSet>
        <BoundPropertyFloat Name="transparency" Value="1" />
      </BoundProperties>
    </TitleClip>
    <TitleClip extentID="23" gapBefore="-4.1654600970347815" duration="3">
      <Effects>
        <TextEffect effectTemplateID="TextEffectFadeTemplate" TextScriptId="1">
          <BoundProperties>
            <BoundPropertyBool Name="automatic" Value="false" />
            <BoundPropertyFloatSet Name="color">
              <BoundPropertyFloatElement Value="1" />
              <BoundPropertyFloatElement Value="1" />
              <BoundPropertyFloatElement Value="1" />
            </BoundPropertyFloatSet>
            <BoundPropertyStringSet Name="family">
              <BoundPropertyStringElement Value="Segoe UI" />
            </BoundPropertyStringSet>
            <BoundPropertyBool Name="horizontal" Value="true" />
            <BoundPropertyStringSet Name="justify">
              <BoundPropertyStringElement Value="MIDDLE" />
            </BoundPropertyStringSet>
            <BoundPropertyBool Name="leftToRight" Value="true" />
            <BoundPropertyFloatSet Name="length" />
            <BoundPropertyFloat Name="maxExtent" Value="0" />
            <BoundPropertyFloatSet Name="outlineColor">
              <BoundPropertyFloatElement Value="0.64705884456634521" />
              <BoundPropertyFloatElement Value="0.64705884456634521" />
              <BoundPropertyFloatElement Value="0.64705884456634521" />
            </BoundPropertyFloatSet>
            <BoundPropertyInt Name="outlineSizeIndex" Value="0" />
            <BoundPropertyFloatSet Name="position">
              <BoundPropertyFloatElement Value="3.5866084098815918" />
              <BoundPropertyFloatElement Value="-1.1395349502563477" />
              <BoundPropertyFloatElement Value="0.02500000037252903" />
            </BoundPropertyFloatSet>
            <BoundPropertyFloat Name="size" Value="0.3333333432674408" />
            <BoundPropertyStringSet Name="string">
              <BoundPropertyStringElement Value="And see at a " />
              <BoundPropertyStringElement Value="glance if you're " />
              <BoundPropertyStringElement Value="caught up or not!" />
            </BoundPropertyStringSet>
            <BoundPropertyString Name="style" Value="Plain" />
            <BoundPropertyFloat Name="transparency" Value="0" />
          </BoundProperties>
        </TextEffect>
      </Effects>
      <Transitions />
      <BoundProperties>
        <BoundPropertyFloatSet Name="diffuseColor">
          <BoundPropertyFloatElement Value="0.75" />
          <BoundPropertyFloatElement Value="1" />
          <BoundPropertyFloatElement Value="0" />
        </BoundPropertyFloatSet>
        <BoundPropertyFloat Name="transparency" Value="1" />
      </BoundProperties>
    </TitleClip>
    <ImageClip extentID="6" gapBefore="0" mediaItemID="2" duration="1">
      <Effects />
      <Transitions />
      <BoundProperties>
        <BoundPropertyInt Name="rotateStepNinety" Value="0" />
      </BoundProperties>
    </ImageClip>
    <TitleClip extentID="41" gapBefore="4.2217377333333559" duration="6">
      <Effects>
        <TextEffect effectTemplateID="TextEffectFadeTemplate" TextScriptId="1">
          <BoundProperties>
            <BoundPropertyBool Name="automatic" Value="false" />
            <BoundPropertyFloatSet Name="color">
              <BoundPropertyFloatElement Value="1" />
              <BoundPropertyFloatElement Value="1" />
              <BoundPropertyFloatElement Value="1" />
            </BoundPropertyFloatSet>
            <BoundPropertyStringSet Name="family">
              <BoundPropertyStringElement Value="Segoe UI" />
            </BoundPropertyStringSet>
            <BoundPropertyBool Name="horizontal" Value="true" />
            <BoundPropertyStringSet Name="justify">
              <BoundPropertyStringElement Value="MIDDLE" />
            </BoundPropertyStringSet>
            <BoundPropertyBool Name="leftToRight" Value="true" />
            <BoundPropertyFloatSet Name="length" />
            <BoundPropertyFloat Name="maxExtent" Value="0" />
            <BoundPropertyFloatSet Name="outlineColor">
              <BoundPropertyFloatElement Value="0.64705884456634521" />
              <BoundPropertyFloatElement Value="0.64705884456634521" />
              <BoundPropertyFloatElement Value="0.64705884456634521" />
            </BoundPropertyFloatSet>
            <BoundPropertyInt Name="outlineSizeIndex" Value="0" />
            <BoundPropertyFloatSet Name="position">
              <BoundPropertyFloatElement Value="3.5633187294006348" />
              <BoundPropertyFloatElement Value="2.4883720874786377" />
              <BoundPropertyFloatElement Value="0.02500000037252903" />
            </BoundPropertyFloatSet>
            <BoundPropertyFloat Name="size" Value="0.3333333432674408" />
            <BoundPropertyStringSet Name="string">
              <BoundPropertyStringElement Value="We'll send you a " />
              <BoundPropertyStringElement Value="notification to " />
              <BoundPropertyStringElement Value="remind you to" />
              <BoundPropertyStringElement Value="" />
              <BoundPropertyStringElement Value="CALL" />
              <BoundPropertyStringElement Value="YOUR" />
              <BoundPropertyStringElement Value="MOTHER!" />
            </BoundPropertyStringSet>
            <BoundPropertyString Name="style" Value="Plain" />
            <BoundPropertyFloat Name="transparency" Value="0" />
          </BoundProperties>
        </TextEffect>
      </Effects>
      <Transitions />
      <BoundProperties>
        <BoundPropertyFloatSet Name="diffuseColor">
          <BoundPropertyFloatElement Value="0.75" />
          <BoundPropertyFloatElement Value="1" />
          <BoundPropertyFloatElement Value="0" />
        </BoundPropertyFloatSet>
        <BoundPropertyFloat Name="transparency" Value="1" />
      </BoundProperties>
    </TitleClip>
    <TitleClip extentID="24" gapBefore="1.1818975970347765" duration="8">
      <Effects>
        <TextEffect effectTemplateID="TextEffectFadeTemplate" TextScriptId="1">
          <BoundProperties>
            <BoundPropertyBool Name="automatic" Value="false" />
            <BoundPropertyFloatSet Name="color">
              <BoundPropertyFloatElement Value="1" />
              <BoundPropertyFloatElement Value="1" />
              <BoundPropertyFloatElement Value="1" />
            </BoundPropertyFloatSet>
            <BoundPropertyStringSet Name="family">
              <BoundPropertyStringElement Value="Segoe UI" />
            </BoundPropertyStringSet>
            <BoundPropertyBool Name="horizontal" Value="true" />
            <BoundPropertyStringSet Name="justify">
              <BoundPropertyStringElement Value="MIDDLE" />
            </BoundPropertyStringSet>
            <BoundPropertyBool Name="leftToRight" Value="true" />
            <BoundPropertyFloatSet Name="length" />
            <BoundPropertyFloat Name="maxExtent" Value="0" />
            <BoundPropertyFloatSet Name="outlineColor">
              <BoundPropertyFloatElement Value="0.64705884456634521" />
              <BoundPropertyFloatElement Value="0.64705884456634521" />
              <BoundPropertyFloatElement Value="0.64705884456634521" />
            </BoundPropertyFloatSet>
            <BoundPropertyInt Name="outlineSizeIndex" Value="0" />
            <BoundPropertyFloatSet Name="position">
              <BoundPropertyFloatElement Value="3.4468703269958496" />
              <BoundPropertyFloatElement Value="2.3023257255554199" />
              <BoundPropertyFloatElement Value="0.02500000037252903" />
            </BoundPropertyFloatSet>
            <BoundPropertyFloat Name="size" Value="0.3333333432674408" />
            <BoundPropertyStringSet Name="string">
              <BoundPropertyStringElement Value="You can also call " />
              <BoundPropertyStringElement Value="your contacts " />
              <BoundPropertyStringElement Value="directly from their " />
              <BoundPropertyStringElement Value="contact page!" />
            </BoundPropertyStringSet>
            <BoundPropertyString Name="style" Value="Plain" />
            <BoundPropertyFloat Name="transparency" Value="0" />
          </BoundProperties>
        </TextEffect>
      </Effects>
      <Transitions />
      <BoundProperties>
        <BoundPropertyFloatSet Name="diffuseColor">
          <BoundPropertyFloatElement Value="0.75" />
          <BoundPropertyFloatElement Value="1" />
          <BoundPropertyFloatElement Value="0" />
        </BoundPropertyFloatSet>
        <BoundPropertyFloat Name="transparency" Value="1" />
      </BoundProperties>
    </TitleClip>
    <VideoClip extentID="7" gapBefore="0" mediaItemID="3" inTime="0" outTime="16.418516833333335" speed="1" stabilizationMode="0">
      <Effects />
      <Transitions />
      <BoundProperties>
        <BoundPropertyBool Name="Mute" Value="false" />
        <BoundPropertyInt Name="rotateStepNinety" Value="0" />
        <BoundPropertyFloat Name="Volume" Value="1" />
      </BoundProperties>
    </VideoClip>
    <TitleClip extentID="25" gapBefore="6.9180752291862717" duration="6">
      <Effects>
        <TextEffect effectTemplateID="TextEffectFadeTemplate" TextScriptId="1">
          <BoundProperties>
            <BoundPropertyBool Name="automatic" Value="false" />
            <BoundPropertyFloatSet Name="color">
              <BoundPropertyFloatElement Value="1" />
              <BoundPropertyFloatElement Value="1" />
              <BoundPropertyFloatElement Value="1" />
            </BoundPropertyFloatSet>
            <BoundPropertyStringSet Name="family">
              <BoundPropertyStringElement Value="Segoe UI" />
            </BoundPropertyStringSet>
            <BoundPropertyBool Name="horizontal" Value="true" />
            <BoundPropertyStringSet Name="justify">
              <BoundPropertyStringElement Value="MIDDLE" />
            </BoundPropertyStringSet>
            <BoundPropertyBool Name="leftToRight" Value="true" />
            <BoundPropertyFloatSet Name="length" />
            <BoundPropertyFloat Name="maxExtent" Value="0" />
            <BoundPropertyFloatSet Name="outlineColor">
              <BoundPropertyFloatElement Value="0.64705884456634521" />
              <BoundPropertyFloatElement Value="0.64705884456634521" />
              <BoundPropertyFloatElement Value="0.64705884456634521" />
            </BoundPropertyFloatSet>
            <BoundPropertyInt Name="outlineSizeIndex" Value="0" />
            <BoundPropertyFloatSet Name="position">
              <BoundPropertyFloatElement Value="-3.4235808849334717" />
              <BoundPropertyFloatElement Value="2.4418604373931885" />
              <BoundPropertyFloatElement Value="0.02500000037252903" />
            </BoundPropertyFloatSet>
            <BoundPropertyFloat Name="size" Value="0.3333333432674408" />
            <BoundPropertyStringSet Name="string">
              <BoundPropertyStringElement Value="And if you want to " />
              <BoundPropertyStringElement Value="unschedule " />
              <BoundPropertyStringElement Value="reminders, just " />
              <BoundPropertyStringElement Value="swipe right to " />
              <BoundPropertyStringElement Value="remove a contact " />
              <BoundPropertyStringElement Value="from the scheduler!" />
            </BoundPropertyStringSet>
            <BoundPropertyString Name="style" Value="Plain" />
            <BoundPropertyFloat Name="transparency" Value="0" />
          </BoundProperties>
        </TextEffect>
      </Effects>
      <Transitions />
      <BoundProperties>
        <BoundPropertyFloatSet Name="diffuseColor">
          <BoundPropertyFloatElement Value="0.75" />
          <BoundPropertyFloatElement Value="1" />
          <BoundPropertyFloatElement Value="0" />
        </BoundPropertyFloatSet>
        <BoundPropertyFloat Name="transparency" Value="1" />
      </BoundProperties>
    </TitleClip>
    <ImageClip extentID="26" gapBefore="0" mediaItemID="1" duration="3">
      <Effects />
      <Transitions>
        <ShapeEffect effectTemplateID="CrossfadeTransitionTemplate" duration="2">
          <BoundProperties />
        </ShapeEffect>
      </Transitions>
      <BoundProperties>
        <BoundPropertyInt Name="rotateStepNinety" Value="0" />
      </BoundProperties>
    </ImageClip>
    <AudioClip extentID="27" gapBefore="0" mediaItemID="5" inTime="0" outTime="0" speed="1">
      <Effects>
        <AudioEffect effectTemplateID="AudioFadeEffectTemplate">
          <BoundProperties>
            <BoundPropertyFloat Name="AudioFadeInDuration" Value="0" />
            <BoundPropertyFloat Name="AudioFadeOutDuration" Value="10" />
          </BoundProperties>
        </AudioEffect>
      </Effects>
      <Transitions />
      <BoundProperties>
        <BoundPropertyBool Name="Mute" Value="false" />
        <BoundPropertyFloat Name="Volume" Value="1.0117647647857666" />
      </BoundProperties>
    </AudioClip>
    <VideoClip extentID="10" gapBefore="0" mediaItemID="4" inTime="46.335795966666666" outTime="51.740133299999997" speed="1" stabilizationMode="0">
      <Effects />
      <Transitions />
      <BoundProperties>
        <BoundPropertyBool Name="Mute" Value="false" />
        <BoundPropertyInt Name="rotateStepNinety" Value="0" />
        <BoundPropertyFloat Name="Volume" Value="1" />
      </BoundProperties>
    </VideoClip>
    <TitleClip extentID="11" gapBefore="4.2296189017203654" duration="4.5">
      <Effects>
        <TextEffect effectTemplateID="TextEffectFadeTemplate" TextScriptId="1">
          <BoundProperties>
            <BoundPropertyBool Name="automatic" Value="false" />
            <BoundPropertyFloatSet Name="color">
              <BoundPropertyFloatElement Value="0.031372550874948502" />
              <BoundPropertyFloatElement Value="0.08235294371843338" />
              <BoundPropertyFloatElement Value="0.12941177189350128" />
            </BoundPropertyFloatSet>
            <BoundPropertyStringSet Name="family">
              <BoundPropertyStringElement Value="Segoe UI" />
            </BoundPropertyStringSet>
            <BoundPropertyBool Name="horizontal" Value="true" />
            <BoundPropertyStringSet Name="justify">
              <BoundPropertyStringElement Value="MIDDLE" />
            </BoundPropertyStringSet>
            <BoundPropertyBool Name="leftToRight" Value="true" />
            <BoundPropertyFloatSet Name="length" />
            <BoundPropertyFloat Name="maxExtent" Value="0" />
            <BoundPropertyFloatSet Name="outlineColor">
              <BoundPropertyFloatElement Value="0.64705884456634521" />
              <BoundPropertyFloatElement Value="0.64705884456634521" />
              <BoundPropertyFloatElement Value="0.64705884456634521" />
            </BoundPropertyFloatSet>
            <BoundPropertyInt Name="outlineSizeIndex" Value="0" />
            <BoundPropertyFloatSet Name="position">
              <BoundPropertyFloatElement Value="-0.023289680480957031" />
              <BoundPropertyFloatElement Value="-1.9069766998291016" />
              <BoundPropertyFloatElement Value="0.02500000037252903" />
            </BoundPropertyFloatSet>
            <BoundPropertyFloat Name="size" Value="0.3333333432674408" />
            <BoundPropertyStringSet Name="string">
              <BoundPropertyStringElement Value="We wanted to build a stylish, easy to use utility " />
              <BoundPropertyStringElement Value="to help you keep up with your friends" />
            </BoundPropertyStringSet>
            <BoundPropertyString Name="style" Value="Plain" />
            <BoundPropertyFloat Name="transparency" Value="0" />
          </BoundProperties>
        </TextEffect>
      </Effects>
      <Transitions />
      <BoundProperties>
        <BoundPropertyFloatSet Name="diffuseColor">
          <BoundPropertyFloatElement Value="0.75" />
          <BoundPropertyFloatElement Value="1" />
          <BoundPropertyFloatElement Value="0" />
        </BoundPropertyFloatSet>
        <BoundPropertyFloat Name="transparency" Value="1" />
      </BoundProperties>
    </TitleClip>
    <VideoClip extentID="29" gapBefore="0" mediaItemID="7" inTime="0" outTime="0" speed="1" stabilizationMode="0">
      <Effects />
      <Transitions />
      <BoundProperties>
        <BoundPropertyBool Name="Mute" Value="false" />
        <BoundPropertyInt Name="rotateStepNinety" Value="0" />
        <BoundPropertyFloat Name="Volume" Value="1" />
      </BoundProperties>
    </VideoClip>
    <TitleClip extentID="12" gapBefore="0" duration="3">
      <Effects />
      <Transitions>
        <ShapeEffect effectTemplateID="BlurThroughBlackTransitionTemplate" duration="1.5">
          <BoundProperties />
        </ShapeEffect>
      </Transitions>
      <BoundProperties>
        <BoundPropertyFloatSet Name="diffuseColor">
          <BoundPropertyFloatElement Value="0" />
          <BoundPropertyFloatElement Value="0" />
          <BoundPropertyFloatElement Value="0" />
        </BoundPropertyFloatSet>
        <BoundPropertyFloat Name="transparency" Value="0" />
      </BoundProperties>
    </TitleClip>
    <TitleClip extentID="13" gapBefore="0.34138509827963404" duration="2">
      <Effects>
        <TextEffect effectTemplateID="TextEffectFadeTemplate" TextScriptId="1">
          <BoundProperties>
            <BoundPropertyBool Name="automatic" Value="false" />
            <BoundPropertyFloatSet Name="color">
              <BoundPropertyFloatElement Value="1" />
              <BoundPropertyFloatElement Value="1" />
              <BoundPropertyFloatElement Value="1" />
            </BoundPropertyFloatSet>
            <BoundPropertyStringSet Name="family">
              <BoundPropertyStringElement Value="Segoe UI" />
            </BoundPropertyStringSet>
            <BoundPropertyBool Name="horizontal" Value="true" />
            <BoundPropertyStringSet Name="justify">
              <BoundPropertyStringElement Value="MIDDLE" />
            </BoundPropertyStringSet>
            <BoundPropertyBool Name="leftToRight" Value="true" />
            <BoundPropertyFloatSet Name="length" />
            <BoundPropertyFloat Name="maxExtent" Value="0" />
            <BoundPropertyFloatSet Name="outlineColor">
              <BoundPropertyFloatElement Value="0.64705884456634521" />
              <BoundPropertyFloatElement Value="0.64705884456634521" />
              <BoundPropertyFloatElement Value="0.64705884456634521" />
            </BoundPropertyFloatSet>
            <BoundPropertyInt Name="outlineSizeIndex" Value="0" />
            <BoundPropertyFloatSet Name="position">
              <BoundPropertyFloatElement Value="0" />
              <BoundPropertyFloatElement Value="0.30232548713684082" />
              <BoundPropertyFloatElement Value="0.02500000037252903" />
            </BoundPropertyFloatSet>
            <BoundPropertyFloat Name="size" Value="0.80000001192092896" />
            <BoundPropertyStringSet Name="string">
              <BoundPropertyStringElement Value="Introducing..." />
            </BoundPropertyStringSet>
            <BoundPropertyString Name="style" Value="Plain" />
            <BoundPropertyFloat Name="transparency" Value="0" />
          </BoundProperties>
        </TextEffect>
      </Effects>
      <Transitions />
      <BoundProperties>
        <BoundPropertyFloatSet Name="diffuseColor">
          <BoundPropertyFloatElement Value="0.75" />
          <BoundPropertyFloatElement Value="1" />
          <BoundPropertyFloatElement Value="0" />
        </BoundPropertyFloatSet>
        <BoundPropertyFloat Name="transparency" Value="1" />
      </BoundProperties>
    </TitleClip>
    <TitleClip extentID="14" gapBefore="4.5549751666666687" duration="2.5">
      <Effects>
        <TextEffect effectTemplateID="TextEffectFadeTemplate" TextScriptId="1">
          <BoundProperties>
            <BoundPropertyBool Name="automatic" Value="false" />
            <BoundPropertyFloatSet Name="color">
              <BoundPropertyFloatElement Value="1" />
              <BoundPropertyFloatElement Value="1" />
              <BoundPropertyFloatElement Value="1" />
            </BoundPropertyFloatSet>
            <BoundPropertyStringSet Name="family">
              <BoundPropertyStringElement Value="Segoe UI" />
            </BoundPropertyStringSet>
            <BoundPropertyBool Name="horizontal" Value="true" />
            <BoundPropertyStringSet Name="justify">
              <BoundPropertyStringElement Value="MIDDLE" />
            </BoundPropertyStringSet>
            <BoundPropertyBool Name="leftToRight" Value="true" />
            <BoundPropertyFloatSet Name="length" />
            <BoundPropertyFloat Name="maxExtent" Value="0" />
            <BoundPropertyFloatSet Name="outlineColor">
              <BoundPropertyFloatElement Value="0.64705884456634521" />
              <BoundPropertyFloatElement Value="0.64705884456634521" />
              <BoundPropertyFloatElement Value="0.64705884456634521" />
            </BoundPropertyFloatSet>
            <BoundPropertyInt Name="outlineSizeIndex" Value="0" />
            <BoundPropertyFloatSet Name="position">
              <BoundPropertyFloatElement Value="3.3304219245910645" />
              <BoundPropertyFloatElement Value="2.5116279125213623" />
              <BoundPropertyFloatElement Value="0.02500000037252903" />
            </BoundPropertyFloatSet>
            <BoundPropertyFloat Name="size" Value="0.3333333432674408" />
            <BoundPropertyStringSet Name="string">
              <BoundPropertyStringElement Value="On first use, " />
              <BoundPropertyStringElement Value="our app " />
              <BoundPropertyStringElement Value="prompts users " />
              <BoundPropertyStringElement Value="to add their " />
              <BoundPropertyStringElement Value="first contact to " />
              <BoundPropertyStringElement Value="our scheduler!" />
            </BoundPropertyStringSet>
            <BoundPropertyString Name="style" Value="Plain" />
            <BoundPropertyFloat Name="transparency" Value="0" />
          </BoundProperties>
        </TextEffect>
      </Effects>
      <Transitions />
      <BoundProperties>
        <BoundPropertyFloatSet Name="diffuseColor">
          <BoundPropertyFloatElement Value="0.75" />
          <BoundPropertyFloatElement Value="1" />
          <BoundPropertyFloatElement Value="0" />
        </BoundPropertyFloatSet>
        <BoundPropertyFloat Name="transparency" Value="1" />
      </BoundProperties>
    </TitleClip>
    <TitleClip extentID="15" gapBefore="0.58452083333333071" duration="7">
      <Effects>
        <TextEffect effectTemplateID="TextEffectFadeTemplate" TextScriptId="1">
          <BoundProperties>
            <BoundPropertyBool Name="automatic" Value="false" />
            <BoundPropertyFloatSet Name="color">
              <BoundPropertyFloatElement Value="1" />
              <BoundPropertyFloatElement Value="1" />
              <BoundPropertyFloatElement Value="1" />
            </BoundPropertyFloatSet>
            <BoundPropertyStringSet Name="family">
              <BoundPropertyStringElement Value="Segoe UI" />
            </BoundPropertyStringSet>
            <BoundPropertyBool Name="horizontal" Value="true" />
            <BoundPropertyStringSet Name="justify">
              <BoundPropertyStringElement Value="MIDDLE" />
            </BoundPropertyStringSet>
            <BoundPropertyBool Name="leftToRight" Value="true" />
            <BoundPropertyFloatSet Name="length" />
            <BoundPropertyFloat Name="maxExtent" Value="0" />
            <BoundPropertyFloatSet Name="outlineColor">
              <BoundPropertyFloatElement Value="0.64705884456634521" />
              <BoundPropertyFloatElement Value="0.64705884456634521" />
              <BoundPropertyFloatElement Value="0.64705884456634521" />
            </BoundPropertyFloatSet>
            <BoundPropertyInt Name="outlineSizeIndex" Value="0" />
            <BoundPropertyFloatSet Name="position">
              <BoundPropertyFloatElement Value="-3.5167396068572998" />
              <BoundPropertyFloatElement Value="2.4418604373931885" />
              <BoundPropertyFloatElement Value="0.02500000037252903" />
            </BoundPropertyFloatSet>
            <BoundPropertyFloat Name="size" Value="0.3333333432674408" />
            <BoundPropertyStringSet Name="string">
              <BoundPropertyStringElement Value="Selecting a contact " />
              <BoundPropertyStringElement Value="will import their " />
              <BoundPropertyStringElement Value="information and set " />
              <BoundPropertyStringElement Value="their default " />
              <BoundPropertyStringElement Value="frequency to weekly " />
              <BoundPropertyStringElement Value="reminders" />
            </BoundPropertyStringSet>
            <BoundPropertyString Name="style" Value="Plain" />
            <BoundPropertyFloat Name="transparency" Value="0" />
          </BoundProperties>
        </TextEffect>
      </Effects>
      <Transitions />
      <BoundProperties>
        <BoundPropertyFloatSet Name="diffuseColor">
          <BoundPropertyFloatElement Value="0.75" />
          <BoundPropertyFloatElement Value="1" />
          <BoundPropertyFloatElement Value="0" />
        </BoundPropertyFloatSet>
        <BoundPropertyFloat Name="transparency" Value="1" />
      </BoundProperties>
    </TitleClip>
    <VideoClip extentID="16" gapBefore="0" mediaItemID="3" inTime="16.418516833333335" outTime="46.789183500000014" speed="4" stabilizationMode="0">
      <Effects />
      <Transitions />
      <BoundProperties>
        <BoundPropertyBool Name="Mute" Value="false" />
        <BoundPropertyInt Name="rotateStepNinety" Value="0" />
        <BoundPropertyFloat Name="Volume" Value="1" />
      </BoundProperties>
    </VideoClip>
    <ExtentSelector extentID="1" gapBefore="0" primaryTrack="true">
      <Effects />
      <Transitions />
      <BoundProperties />
      <ExtentRefs>
        <ExtentRef id="6" />
        <ExtentRef id="5" />
        <ExtentRef id="10" />
        <ExtentRef id="12" />
        <ExtentRef id="7" />
        <ExtentRef id="16" />
        <ExtentRef id="20" />
        <ExtentRef id="19" />
        <ExtentRef id="39" />
        <ExtentRef id="38" />
        <ExtentRef id="29" />
        <ExtentRef id="26" />
      </ExtentRefs>
    </ExtentSelector>
    <ExtentSelector extentID="2" gapBefore="0" primaryTrack="false">
      <Effects />
      <Transitions />
      <BoundProperties />
      <ExtentRefs>
        <ExtentRef id="27" />
      </ExtentRefs>
    </ExtentSelector>
    <ExtentSelector extentID="3" gapBefore="0" primaryTrack="false">
      <Effects />
      <Transitions />
      <BoundProperties />
      <ExtentRefs />
    </ExtentSelector>
    <ExtentSelector extentID="4" gapBefore="0" primaryTrack="false">
      <Effects />
      <Transitions />
      <BoundProperties />
      <ExtentRefs>
        <ExtentRef id="11" />
        <ExtentRef id="13" />
        <ExtentRef id="14" />
        <ExtentRef id="15" />
        <ExtentRef id="21" />
        <ExtentRef id="22" />
        <ExtentRef id="23" />
        <ExtentRef id="24" />
        <ExtentRef id="25" />
        <ExtentRef id="40" />
        <ExtentRef id="41" />
      </ExtentRefs>
    </ExtentSelector>
  </Extents>
  <BoundPlaceholders>
    <BoundPlaceholder placeholderID="SingleExtentView" extentID="0" />
    <BoundPlaceholder placeholderID="Main" extentID="1" />
    <BoundPlaceholder placeholderID="SoundTrack" extentID="2" />
    <BoundPlaceholder placeholderID="Text" extentID="4" />
    <BoundPlaceholder placeholderID="Narration" extentID="3" />
  </BoundPlaceholders>
  <BoundProperties>
    <BoundPropertyFloatSet Name="AspectRatio">
      <BoundPropertyFloatElement Value="1.7777776718139648" />
    </BoundPropertyFloatSet>
    <BoundPropertyFloat Name="DuckedNarrationAndSoundTrackMix" Value="1" />
    <BoundPropertyFloat Name="DuckedVideoAndNarrationMix" Value="0" />
    <BoundPropertyFloat Name="DuckedVideoAndSoundTrackMix" Value="0.5" />
    <BoundPropertyFloat Name="SoundTrackMix" Value="0.5" />
  </BoundProperties>
  <ThemeOperationLog themeID="0">
    <MonolithicThemeOperations />
  </ThemeOperationLog>
  <AudioDuckingProperties emphasisPlaceholderID="Narration" />
</Project>